PathFileType	4	(X/Y/Z)	/Users/visionmauri/Downloads/Videos/OAW03-top_Sports2D/OAW03-top_Sports2D_px_person00.trc
DataRate	CameraRate	NumFrames	NumMarkers	Units	OrigDataRate	OrigDataStartFrame	OrigNumFrames
30.0	30.0	11	22	m	30.0	1341	2146
Frame#	Time	Hip			RHip			RKnee			RAnkle			RBigToe			RSmallToe			RHeel			LHip			LKnee			LAnkle			LBigToe			LSmallToe			LHeel			Neck			Head			Nose			RShoulder			RElbow			RWrist			LShoulder			LElbow			LWrist			
		X1	Y1	Z1	X2	Y2	Z2	X3	Y3	Z3	X4	Y4	Z4	X5	Y5	Z5	X6	Y6	Z6	X7	Y7	Z7	X8	Y8	Z8	X9	Y9	Z9	X10	Y10	Z10	X11	Y11	Z11	X12	Y12	Z12	X13	Y13	Z13	X14	Y14	Z14	X15	Y15	Z15	X16	Y16	Z16	X17	Y17	Z17	X18	Y18	Z18	X19	Y19	Z19	X20	Y20	Z20	X21	Y21	Z21	X22	Y22	Z22
1341	44.72083916083916	528.7837693496807	639.2347976780825	0.0	546.6972638404698	642.6649946657245	0.0	546.6958768084467	697.4968025552048	0.0	543.6966777247935	740.6275762753427	0.0	533.2782782245955	777.9402355272443	0.0	547.4748856154555	776.7189919371386	0.0	543.9461884914492	755.5929284857048	0.0	512.9975959847711	641.7937279166961	0.0	515.7352286139076	698.9818204723092	0.0	521.7655090125412	751.4438658421508	0.0	524.1179100901591	769.5894173462701	0.0	512.9789429007039	770.4989991978864	0.0	524.0977411033081	766.6215458852248	0.0	533.2160599879495	539.1907389696929	0.0	532.9526607120953	508.91512298683165	0.0	538.5496646662338	528.6253178514315	0.0	563.653814798031	554.6775891396645	0.0	572.9020603446144	602.4393769872414	0.0	580.003647064378	640.8330346520044	0.0	504.5551237729457	551.6323924592343	0.0	487.22790484841346	596.8291892520484	0.0	467.61976440160805	635.9136635627921	0.0
1342	44.75418803418803	528.0163671840569	637.6928682240896	0.0	545.7570823543173	641.3791290397637	0.0	545.7769212649644	695.0242819832617	0.0	544.7807977501628	739.6322287100786	0.0	534.9453189003859	773.7664278389543	0.0	549.6493853218806	772.8039587413982	0.0	545.0609727326472	753.9423155593435	0.0	512.5473853878264	640.8753770021824	0.0	515.1833952696036	698.3383456022177	0.0	521.3554105959149	751.616269064943	0.0	524.0478601563813	769.297735670153	0.0	512.8985047009072	770.4131504023891	0.0	523.7287319214585	767.1678098420571	0.0	533.3125200578047	536.1375813823471	0.0	533.4788079587645	505.39359751133725	0.0	536.1853416903398	524.5769068926418	0.0	563.4925039732314	553.070329837532	0.0	571.974694607393	601.7542603209612	0.0	577.4518707790306	641.0789246727971	0.0	504.32477177734324	550.3137172393211	0.0	488.4534201955362	596.0846532446374	0.0	470.48590517443614	634.7354409794077	0.0
1343	44.787536907536904	527.1906939892274	636.6880292772145	0.0	544.6433960073995	639.502368612798	0.0	544.8089875293506	693.4804073890671	0.0	544.8623404055128	741.6792301216748	0.0	535.7146751932545	770.1266994006508	0.0	550.2411806205004	769.8779547814027	0.0	544.4719809556569	755.1123853217487	0.0	511.83071866773804	639.5523738517247	0.0	514.5861222320644	697.657219720263	0.0	520.8975980863719	752.0266580672264	0.0	523.9755320007961	768.0179240784985	0.0	512.8033301694563	769.4522669261958	0.0	523.1772242090327	767.1532090449084	0.0	533.2332481233728	534.9175803174949	0.0	534.010288543254	501.5025502176688	0.0	534.0624160416025	522.6850504863824	0.0	563.2029544217334	551.8765594051265	0.0	571.1719188086539	601.1918110876421	0.0	574.8987384904534	641.0484458153126	0.0	503.7784643996773	549.3538341916682	0.0	489.2937614828391	595.4895262425489	0.0	473.15084172340266	634.1319157905795	0.0
1344	44.82088578088578	526.4394767256573	636.2026244464853	0.0	543.6807746360132	637.46580569077	0.0	543.9037130596568	692.5067177257326	0.0	543.8706093718672	744.0813395546156	0.0	535.7970010462511	765.7227844181313	0.0	549.8659537047284	766.7155388738754	0.0	542.7597470913234	757.4457202008517	0.0	510.9114397308364	637.8076373998496	0.0	514.2478147514531	696.9617598619191	0.0	520.6993229660068	752.4208262401547	0.0	523.8521575405299	766.2555372337257	0.0	512.6629259315939	768.1184170277492	0.0	522.9146101098953	766.7682134558235	0.0	532.8316372645442	535.3907600077632	0.0	534.1201113304211	497.979868544777	0.0	532.8250281685339	522.0501913483073	0.0	562.6090933448965	551.0479596666821	0.0	570.1041439591554	600.5222375745308	0.0	572.5216981259077	640.8943030664799	0.0	503.1352659251987	548.6444978897654	0.0	489.3488301621171	595.3078016215445	0.0	475.67443422489544	634.1220596663136	0.0
1345	44.85423465423465	525.9094816463657	635.589305797478	0.0	542.9813898981884	636.0478596370057	0.0	543.424269322196	691.7007088118185	0.0	542.3470172469983	744.8386623781219	0.0	535.6908047708168	760.9262396188726	0.0	549.3763980931474	762.9012700153027	0.0	540.5689614128867	758.339253026248	0.0	509.99063646117736	636.1152360439048	0.0	514.1504134528383	696.229955234285	0.0	520.5783773392177	752.537045359837	0.0	523.6531598695098	764.7276786911292	0.0	512.537289232796	767.2019124788512	0.0	522.8344508684219	766.3121630715691	0.0	532.3711055133663	536.191360038723	0.0	534.1833992534688	495.30612158645664	0.0	532.3698538997569	520.6871914230095	0.0	561.7964443159891	550.5325999082847	0.0	568.730795882553	599.8648425270818	0.0	570.5504195364657	640.6902600542169	0.0	502.70478846114344	548.0234635872918	0.0	488.84237704859663	595.142039219578	0.0	478.46685023369525	634.1435542634661	0.0
1346	44.88758352758352	525.7178868139168	634.5954163215561	0.0	542.5113367035232	635.5264884782416	0.0	543.5163262402033	690.8469833360626	0.0	540.8661045394042	743.7122020775566	0.0	535.5500673116328	757.8258161731909	0.0	548.5734439758284	759.8935744454875	0.0	538.5369804495003	756.7915236499102	0.0	509.3399099428136	635.0102481045642	0.0	514.14095366808	695.5646877250482	0.0	520.4280507728213	752.3617163248588	0.0	523.3999471333391	763.8652260953745	0.0	512.4010176240837	766.9938822923449	0.0	522.6179965890831	765.9647050838666	0.0	532.1078045690408	536.5168295755234	0.0	534.8815518651946	494.35221812536656	0.0	533.1364075743257	519.6298935250373	0.0	561.0959122447165	550.4698157439924	0.0	567.4922027133592	599.5740022254691	0.0	569.2856039490035	640.6491228345882	0.0	502.6696405412067	547.5018545293663	0.0	488.341961187844	594.6353572954423	0.0	481.58341649658655	633.8496927838188	0.0
1347	44.9209324009324	525.8503310967025	633.7986617778616	0.0	542.305991866582	635.8896508908363	0.0	543.8986029287288	689.9021740826148	0.0	539.7128815809028	741.4458594916749	0.0	535.1767514014166	756.9503802991958	0.0	547.2475649291961	758.4495611512448	0.0	537.2018640383344	754.1454494068341	0.0	509.2020179225876	634.8842462792351	0.0	514.2212783233763	695.0802133846968	0.0	520.4959020566229	751.9445584231881	0.0	523.132291217023	763.9758257097535	0.0	512.2889559747372	767.2925468929149	0.0	522.4320355987854	765.6596505314157	0.0	532.2198983550297	536.2699415278695	0.0	536.1886106314822	495.534320867992	0.0	535.4943664886213	520.5444880425493	0.0	560.8725716817419	550.9438770971813	0.0	566.8804616070822	599.9480530397245	0.0	568.8534322626243	641.1188626907459	0.0	503.05375405108333	547.2613304858065	0.0	488.3013259993863	594.1338752842232	0.0	484.470201112155	633.2609109242549	0.0
1348	44.95428127428127	526.1174560000524	633.6449818521298	0.0	542.3707281136487	636.8843439088245	0.0	544.1821127248401	689.1753553073801	0.0	538.9674012012172	739.1262266913155	0.0	534.5069113623821	756.4210355063065	0.0	546.0635594738492	757.2052939468385	0.0	536.7598993020042	751.955401482487	0.0	509.4575851486521	635.5404013853362	0.0	514.3516271640551	694.8269458210597	0.0	520.7959811167381	751.3628614729872	0.0	522.8416338291888	765.0573196582393	0.0	512.3451594010164	767.7767201679767	0.0	522.5147170428972	765.3251325638735	0.0	532.8178780636752	535.613151216399	0.0	537.2152938885206	497.49671171987484	0.0	537.9016510124168	522.0311641851835	0.0	561.0577614411684	551.6613420596368	0.0	566.8932997204554	600.9058508657748	0.0	568.9926785258654	641.8886034746262	0.0	503.7170841033008	547.364055393617	0.0	488.8261998278499	594.0040489929643	0.0	486.4859839161501	632.2893443905259	0.0
1349	44.98763014763015	526.3224015684915	633.8471986706937	0.0	542.5461856199385	637.6873545278838	0.0	543.9966383514721	688.8101281256012	0.0	538.6470275968929	737.51650098216	0.0	533.9880142138198	754.2011305645397	0.0	545.7362062642153	754.563530421138	0.0	536.9104625531863	750.5024587963882	0.0	509.69867322754044	635.8596631287004	0.0	514.3992651655302	694.7465971003871	0.0	520.9788380385581	750.764190093255	0.0	522.5657446384171	766.3665041137394	0.0	512.6120775387548	768.0718717428826	0.0	522.631941782241	764.930218999276	0.0	533.7601731136169	535.2168231076485	0.0	537.6435985020529	498.8361028220975	0.0	538.8851720427193	522.4573338824704	0.0	561.3312276641096	552.324642899531	0.0	567.1588918887444	602.0003623064889	0.0	569.3525704654098	642.3442752495922	0.0	504.53474498436293	547.6577208602135	0.0	489.6773157100499	593.8593556950923	0.0	487.4697111730346	630.7617983040618	0.0
1350	45.02097902097902	526.513277051403	633.7915053881682	0.0	542.6535083492053	637.4781875778357	0.0	543.1609133093892	688.3467435318203	0.0	538.7066323898342	736.5137944785147	0.0	533.9111683459048	750.4936791359625	0.0	545.9914381035559	751.0086991557314	0.0	537.0945748909334	749.1926888840679	0.0	509.7511663417425	634.8392633407549	0.0	514.3659005620415	694.5065747870831	0.0	520.7955569694661	749.9329407478026	0.0	522.512227531143	766.9550288748428	0.0	512.8774162470636	767.8350106916178	0.0	522.3541929711863	764.0398191703507	0.0	534.8392241326289	536.2574948531905	0.0	538.6691795405027	500.44826641677366	0.0	539.7059513873351	523.5423861290562	0.0	561.8000929959845	553.0905658523703	0.0	567.5108120834351	602.9329107992666	0.0	569.9191347812584	642.4370965461981	0.0	505.4999726992808	548.0042365445561	0.0	490.51445556785217	593.2361445438708	0.0	487.9146870011903	629.0453582859055	0.0
1351	45.05432789432789	526.7822471008469	633.1536866993773	0.0	542.6245815944587	636.2643596991865	0.0	542.0527332026402	687.5069022590332	0.0	538.9342013675054	735.7071016440448	0.0	533.8677647275704	747.563491717078	0.0	546.0939845850919	748.8111835917226	0.0	537.1220975169324	747.8690573030719	0.0	509.8029208563204	632.9916979748468	0.0	514.3522006771259	693.6728864253922	0.0	520.2476401004504	748.3265766046788	0.0	522.8897423396794	766.4990716300802	0.0	512.825326484109	766.9546706582628	0.0	521.5334860969486	762.1232220149475	0.0	536.071052893598	539.0159710927101	0.0	541.4043014005127	503.7199090449663	0.0	542.3236492061302	527.2610941313263	0.0	562.786117686315	554.1736551690552	0.0	567.9746259982063	603.7290549490173	0.0	570.8999577565814	642.7029319987299	0.0	506.5762655911876	548.1564219561543	0.0	491.17190952372397	592.3951239041206	0.0	488.4695181147594	627.8174444187229	0.0
